<svg width="88" height="86" viewBox="0 0 88 86" fill="none" xmlns="http://www.w3.org/2000/svg">
<path d="M26.6203 64L9 33H20.5443L26.6203 43.0294H33L26.6203 33H38.7722L57 64H44.5443L38.7722 53.9706H33L38.7722 64H26.6203Z" fill="#D9D9D9" stroke="#D9D9D9"/>
<path d="M47.2297 35.046L65.6137 4.74285L71.2383 14.7473L65.4734 24.8765L68.5816 30.4052L74.1986 20.0128L80.1191 30.5438L62.0311 61.3735L55.9626 50.5792L61.8755 40.7133L59.0632 35.7111L53.1503 45.577L47.2297 35.046Z" fill="#D9D9D9" stroke="#D9D9D9"/>
<path d="M23.8738 0.906378L59.4073 2.12228L53.3752 11.8885L41.683 11.8126L38.3495 17.2098L50.2005 17.0287L43.851 27.3089L8.00002 26.607L14.5083 16.0698L26.0417 16.4027L29.0577 11.5195L17.5243 11.1866L23.8738 0.906378Z" fill="#D9D9D9" stroke="#D9D9D9"/>
<path d="M4.54155 73.34C4.54155 73.2467 4.58821 73.2 4.68155 73.2H5.39555C5.48888 73.2 5.53555 73.2467 5.53555 73.34V82.86C5.53555 82.9533 5.48888 83 5.39555 83H4.68155C4.58821 83 4.54155 82.9533 4.54155 82.86V78.59C4.54155 78.5527 4.52288 78.534 4.48555 78.534H1.99355C1.95621 78.534 1.93755 78.5527 1.93755 78.59V82.86C1.93755 82.9533 1.89088 83 1.79755 83H1.08355C0.990214 83 0.943547 82.9533 0.943547 82.86V73.34C0.943547 73.2467 0.990214 73.2 1.08355 73.2H1.79755C1.89088 73.2 1.93755 73.2467 1.93755 73.34V77.596C1.93755 77.6333 1.95621 77.652 1.99355 77.652H4.48555C4.52288 77.652 4.54155 77.6333 4.54155 77.596V73.34ZM9.46506 75.804C10.1184 75.804 10.6411 76.0187 11.0331 76.448C11.4251 76.868 11.6211 77.4327 11.6211 78.142V82.86C11.6211 82.9533 11.5744 83 11.4811 83H10.7671C10.6737 83 10.6271 82.9533 10.6271 82.86V82.44C10.6271 82.4213 10.6177 82.412 10.5991 82.412C10.5897 82.4027 10.5757 82.4073 10.5571 82.426C10.2117 82.8833 9.69373 83.112 9.00306 83.112C8.48973 83.112 8.04173 82.9673 7.65906 82.678C7.28573 82.3793 7.09906 81.8567 7.09906 81.11C7.09906 80.3167 7.32773 79.738 7.78506 79.374C8.2424 79.0007 8.8444 78.814 9.59106 78.814H10.5711C10.6084 78.814 10.6271 78.7953 10.6271 78.758V78.212C10.6271 77.7453 10.5197 77.372 10.3051 77.092C10.0904 76.812 9.80106 76.672 9.43706 76.672C9.15706 76.672 8.9144 76.7653 8.70906 76.952C8.51306 77.1387 8.3964 77.3767 8.35906 77.666C8.35906 77.7593 8.3124 77.806 8.21906 77.806L7.43506 77.792C7.3884 77.792 7.35106 77.778 7.32306 77.75C7.3044 77.722 7.29973 77.6893 7.30906 77.652C7.35573 77.1013 7.57973 76.658 7.98106 76.322C8.3824 75.9767 8.87706 75.804 9.46506 75.804ZM9.21306 82.244C9.59573 82.244 9.92706 82.1227 10.2071 81.88C10.4871 81.628 10.6271 81.2827 10.6271 80.844V79.668C10.6271 79.6307 10.6084 79.612 10.5711 79.612H9.57706C9.12906 79.612 8.7744 79.7333 8.51306 79.976C8.25173 80.2093 8.12106 80.5593 8.12106 81.026C8.12106 81.4367 8.21906 81.7447 8.41506 81.95C8.6204 82.146 8.8864 82.244 9.21306 82.244ZM15.6683 75.804C16.2563 75.804 16.7276 76.0047 17.0823 76.406C17.4369 76.798 17.6143 77.3113 17.6143 77.946V80.97C17.6143 81.6233 17.4369 82.146 17.0823 82.538C16.7276 82.9207 16.2563 83.112 15.6683 83.112C15.4069 83.112 15.1596 83.0653 14.9263 82.972C14.6929 82.8693 14.4876 82.7153 14.3103 82.51C14.2916 82.4913 14.2729 82.4867 14.2543 82.496C14.2449 82.5053 14.2403 82.5193 14.2403 82.538V85.576C14.2403 85.6693 14.1936 85.716 14.1003 85.716H13.3863C13.2929 85.716 13.2463 85.6693 13.2463 85.576V76.056C13.2463 75.9627 13.2929 75.916 13.3863 75.916H14.1003C14.1936 75.916 14.2403 75.9627 14.2403 76.056V76.378C14.2403 76.3967 14.2496 76.4107 14.2683 76.42C14.2869 76.42 14.3056 76.4107 14.3243 76.392C14.4923 76.196 14.6929 76.0513 14.9263 75.958C15.1689 75.8553 15.4163 75.804 15.6683 75.804ZM16.6343 78.016C16.6343 77.6147 16.5176 77.2927 16.2843 77.05C16.0603 76.798 15.7709 76.672 15.4163 76.672C15.0709 76.672 14.7863 76.798 14.5623 77.05C14.3476 77.2927 14.2403 77.6147 14.2403 78.016V80.9C14.2403 81.3013 14.3476 81.628 14.5623 81.88C14.7863 82.1227 15.0709 82.244 15.4163 82.244C15.7709 82.244 16.0603 82.1227 16.2843 81.88C16.5176 81.628 16.6343 81.3013 16.6343 80.9V78.016ZM21.6565 75.804C22.2445 75.804 22.7159 76.0047 23.0705 76.406C23.4252 76.798 23.6025 77.3113 23.6025 77.946V80.97C23.6025 81.6233 23.4252 82.146 23.0705 82.538C22.7159 82.9207 22.2445 83.112 21.6565 83.112C21.3952 83.112 21.1479 83.0653 20.9145 82.972C20.6812 82.8693 20.4759 82.7153 20.2985 82.51C20.2799 82.4913 20.2612 82.4867 20.2425 82.496C20.2332 82.5053 20.2285 82.5193 20.2285 82.538V85.576C20.2285 85.6693 20.1819 85.716 20.0885 85.716H19.3745C19.2812 85.716 19.2345 85.6693 19.2345 85.576V76.056C19.2345 75.9627 19.2812 75.916 19.3745 75.916H20.0885C20.1819 75.916 20.2285 75.9627 20.2285 76.056V76.378C20.2285 76.3967 20.2379 76.4107 20.2565 76.42C20.2752 76.42 20.2939 76.4107 20.3125 76.392C20.4805 76.196 20.6812 76.0513 20.9145 75.958C21.1572 75.8553 21.4045 75.804 21.6565 75.804ZM22.6225 78.016C22.6225 77.6147 22.5059 77.2927 22.2725 77.05C22.0485 76.798 21.7592 76.672 21.4045 76.672C21.0592 76.672 20.7745 76.798 20.5505 77.05C20.3359 77.2927 20.2285 77.6147 20.2285 78.016V80.9C20.2285 81.3013 20.3359 81.628 20.5505 81.88C20.7745 82.1227 21.0592 82.244 21.4045 82.244C21.7592 82.244 22.0485 82.1227 22.2725 81.88C22.5059 81.628 22.6225 81.3013 22.6225 80.9V78.016ZM24.8738 85.8C24.8551 85.8 24.8365 85.786 24.8178 85.758C24.7991 85.73 24.7898 85.6973 24.7898 85.66V85.1C24.7898 85.0067 24.8365 84.96 24.9298 84.96C25.2191 84.9507 25.4431 84.8947 25.6018 84.792C25.7698 84.6893 25.9051 84.5073 26.0078 84.246C26.1105 83.9847 26.2131 83.5833 26.3158 83.042C26.3251 83.0233 26.3251 83.0093 26.3158 83C26.3158 82.9813 26.3158 82.9673 26.3158 82.958L24.5378 76.07L24.5238 76.028C24.5238 75.9533 24.5705 75.916 24.6638 75.916H25.4198C25.5131 75.916 25.5645 75.958 25.5738 76.042L26.8058 81.544C26.8151 81.572 26.8245 81.586 26.8338 81.586C26.8431 81.586 26.8525 81.572 26.8618 81.544L28.0798 76.042C28.0985 75.958 28.1498 75.916 28.2338 75.916L29.0178 75.93C29.0645 75.93 29.0971 75.944 29.1158 75.972C29.1438 76 29.1485 76.0373 29.1298 76.084L27.1838 83.616C27.0158 84.2413 26.8478 84.7033 26.6798 85.002C26.5211 85.3007 26.3111 85.506 26.0498 85.618C25.7885 85.7393 25.4198 85.8 24.9438 85.8H24.8738ZM36.8208 73.34C36.8208 73.2467 36.8675 73.2 36.9608 73.2H37.6748C37.7682 73.2 37.8148 73.2467 37.8148 73.34V82.86C37.8148 82.9533 37.7682 83 37.6748 83H36.9608C36.8675 83 36.8208 82.9533 36.8208 82.86V78.59C36.8208 78.5527 36.8022 78.534 36.7648 78.534H34.2728C34.2355 78.534 34.2168 78.5527 34.2168 78.59V82.86C34.2168 82.9533 34.1702 83 34.0768 83H33.3628C33.2695 83 33.2228 82.9533 33.2228 82.86V73.34C33.2228 73.2467 33.2695 73.2 33.3628 73.2H34.0768C34.1702 73.2 34.2168 73.2467 34.2168 73.34V77.596C34.2168 77.6333 34.2355 77.652 34.2728 77.652H36.7648C36.8022 77.652 36.8208 77.6333 36.8208 77.596V73.34ZM41.7164 83.112C41.0444 83.112 40.5077 82.916 40.1064 82.524C39.7144 82.132 39.5184 81.614 39.5184 80.97V77.96C39.5184 77.3253 39.719 76.8073 40.1204 76.406C40.5217 76.0047 41.0537 75.804 41.7164 75.804C42.3884 75.804 42.925 76.0047 43.3264 76.406C43.7277 76.8073 43.9284 77.3253 43.9284 77.96V80.97C43.9284 81.614 43.7277 82.132 43.3264 82.524C42.925 82.916 42.3884 83.112 41.7164 83.112ZM41.7164 82.23C42.071 82.23 42.3604 82.1087 42.5844 81.866C42.8177 81.6233 42.9344 81.3013 42.9344 80.9V78.016C42.9344 77.6147 42.8177 77.2927 42.5844 77.05C42.3604 76.798 42.071 76.672 41.7164 76.672C41.3617 76.672 41.0724 76.798 40.8484 77.05C40.6244 77.2927 40.5124 77.6147 40.5124 78.016V80.9C40.5124 81.3013 40.6244 81.6233 40.8484 81.866C41.0724 82.1087 41.3617 82.23 41.7164 82.23ZM48.7169 76.056C48.7169 75.9627 48.7636 75.916 48.8569 75.916H49.5709C49.6642 75.916 49.7109 75.9627 49.7109 76.056V82.86C49.7109 82.9533 49.6642 83 49.5709 83H48.8569C48.7636 83 48.7169 82.9533 48.7169 82.86V82.384C48.7169 82.356 48.7076 82.342 48.6889 82.342C48.6796 82.342 48.6656 82.3513 48.6469 82.37C48.3576 82.8553 47.8909 83.098 47.2469 83.098C46.6869 83.098 46.2389 82.93 45.9029 82.594C45.5762 82.2487 45.4129 81.7307 45.4129 81.04V76.056C45.4129 75.9627 45.4596 75.916 45.5529 75.916H46.2669C46.3602 75.916 46.4069 75.9627 46.4069 76.056V80.816C46.4069 81.2827 46.5002 81.6373 46.6869 81.88C46.8829 82.1133 47.1629 82.23 47.5269 82.23C47.9002 82.23 48.1896 82.0947 48.3949 81.824C48.6096 81.5533 48.7169 81.1847 48.7169 80.718V76.056ZM53.8105 75.846C54.0438 75.846 54.2445 75.8973 54.4125 76C54.4778 76.0373 54.5012 76.098 54.4825 76.182L54.3145 76.91C54.3052 76.994 54.2492 77.022 54.1465 76.994C54.0345 76.938 53.8945 76.91 53.7265 76.91C53.6518 76.91 53.5958 76.9147 53.5585 76.924C53.2225 76.9427 52.9472 77.12 52.7325 77.456C52.5178 77.7827 52.4105 78.184 52.4105 78.66V82.86C52.4105 82.9533 52.3638 83 52.2705 83H51.5565C51.4632 83 51.4165 82.9533 51.4165 82.86V76.056C51.4165 75.9627 51.4632 75.916 51.5565 75.916H52.2705C52.3638 75.916 52.4105 75.9627 52.4105 76.056V76.896C52.4105 76.924 52.4152 76.938 52.4245 76.938C52.4432 76.938 52.4618 76.9287 52.4805 76.91C52.7512 76.2007 53.1945 75.846 53.8105 75.846ZM62.0591 73.34C62.0591 73.2467 62.1058 73.2 62.1991 73.2H62.9131C63.0065 73.2 63.0531 73.2467 63.0531 73.34V82.86C63.0531 82.9533 63.0065 83 62.9131 83H62.1991C62.1058 83 62.0591 82.9533 62.0591 82.86V78.59C62.0591 78.5527 62.0405 78.534 62.0031 78.534H59.5111C59.4738 78.534 59.4551 78.5527 59.4551 78.59V82.86C59.4551 82.9533 59.4085 83 59.3151 83H58.6011C58.5078 83 58.4611 82.9533 58.4611 82.86V73.34C58.4611 73.2467 58.5078 73.2 58.6011 73.2H59.3151C59.4085 73.2 59.4551 73.2467 59.4551 73.34V77.596C59.4551 77.6333 59.4738 77.652 59.5111 77.652H62.0031C62.0405 77.652 62.0591 77.6333 62.0591 77.596V73.34ZM69.1386 79.696C69.1386 79.7893 69.092 79.836 68.9986 79.836H65.8066C65.7693 79.836 65.7506 79.8547 65.7506 79.892V80.914C65.7506 81.306 65.858 81.628 66.0726 81.88C66.2966 82.1227 66.586 82.244 66.9406 82.244C67.2393 82.244 67.4913 82.1553 67.6966 81.978C67.9113 81.7913 68.0513 81.5533 68.1166 81.264C68.1446 81.18 68.196 81.138 68.2706 81.138L68.9706 81.166C69.008 81.166 69.0406 81.18 69.0686 81.208C69.0966 81.236 69.106 81.2733 69.0966 81.32C69.022 81.8707 68.7933 82.3093 68.4106 82.636C68.0373 82.9533 67.5473 83.112 66.9406 83.112C66.278 83.112 65.746 82.916 65.3446 82.524C64.9526 82.132 64.7566 81.614 64.7566 80.97V77.946C64.7566 77.3113 64.9526 76.798 65.3446 76.406C65.746 76.0047 66.278 75.804 66.9406 75.804C67.6126 75.804 68.1446 76.0047 68.5366 76.406C68.938 76.798 69.1386 77.3113 69.1386 77.946V79.696ZM66.9406 76.672C66.586 76.672 66.2966 76.798 66.0726 77.05C65.858 77.2927 65.7506 77.6147 65.7506 78.016V78.954C65.7506 78.9913 65.7693 79.01 65.8066 79.01H68.1026C68.14 79.01 68.1586 78.9913 68.1586 78.954V78.016C68.1586 77.6147 68.0466 77.2927 67.8226 77.05C67.5986 76.798 67.3046 76.672 66.9406 76.672ZM70.6678 83C70.5745 83 70.5278 82.9533 70.5278 82.86V73.34C70.5278 73.2467 70.5745 73.2 70.6678 73.2H71.3818C71.4751 73.2 71.5218 73.2467 71.5218 73.34V82.86C71.5218 82.9533 71.4751 83 71.3818 83H70.6678ZM75.6331 75.804C76.2211 75.804 76.6924 76.0047 77.0471 76.406C77.4018 76.798 77.5791 77.3113 77.5791 77.946V80.97C77.5791 81.6233 77.4018 82.146 77.0471 82.538C76.6924 82.9207 76.2211 83.112 75.6331 83.112C75.3718 83.112 75.1244 83.0653 74.8911 82.972C74.6578 82.8693 74.4524 82.7153 74.2751 82.51C74.2564 82.4913 74.2378 82.4867 74.2191 82.496C74.2098 82.5053 74.2051 82.5193 74.2051 82.538V85.576C74.2051 85.6693 74.1584 85.716 74.0651 85.716H73.3511C73.2578 85.716 73.2111 85.6693 73.2111 85.576V76.056C73.2111 75.9627 73.2578 75.916 73.3511 75.916H74.0651C74.1584 75.916 74.2051 75.9627 74.2051 76.056V76.378C74.2051 76.3967 74.2144 76.4107 74.2331 76.42C74.2518 76.42 74.2704 76.4107 74.2891 76.392C74.4571 76.196 74.6578 76.0513 74.8911 75.958C75.1338 75.8553 75.3811 75.804 75.6331 75.804ZM76.5991 78.016C76.5991 77.6147 76.4824 77.2927 76.2491 77.05C76.0251 76.798 75.7358 76.672 75.3811 76.672C75.0358 76.672 74.7511 76.798 74.5271 77.05C74.3124 77.2927 74.2051 77.6147 74.2051 78.016V80.9C74.2051 81.3013 74.3124 81.628 74.5271 81.88C74.7511 82.1227 75.0358 82.244 75.3811 82.244C75.7358 82.244 76.0251 82.1227 76.2491 81.88C76.4824 81.628 76.5991 81.3013 76.5991 80.9V78.016ZM83.3574 79.696C83.3574 79.7893 83.3107 79.836 83.2174 79.836H80.0254C79.9881 79.836 79.9694 79.8547 79.9694 79.892V80.914C79.9694 81.306 80.0767 81.628 80.2914 81.88C80.5154 82.1227 80.8047 82.244 81.1594 82.244C81.4581 82.244 81.7101 82.1553 81.9154 81.978C82.1301 81.7913 82.2701 81.5533 82.3354 81.264C82.3634 81.18 82.4147 81.138 82.4894 81.138L83.1894 81.166C83.2267 81.166 83.2594 81.18 83.2874 81.208C83.3154 81.236 83.3247 81.2733 83.3154 81.32C83.2407 81.8707 83.0121 82.3093 82.6294 82.636C82.2561 82.9533 81.7661 83.112 81.1594 83.112C80.4967 83.112 79.9647 82.916 79.5634 82.524C79.1714 82.132 78.9754 81.614 78.9754 80.97V77.946C78.9754 77.3113 79.1714 76.798 79.5634 76.406C79.9647 76.0047 80.4967 75.804 81.1594 75.804C81.8314 75.804 82.3634 76.0047 82.7554 76.406C83.1567 76.798 83.3574 77.3113 83.3574 77.946V79.696ZM81.1594 76.672C80.8047 76.672 80.5154 76.798 80.2914 77.05C80.0767 77.2927 79.9694 77.6147 79.9694 78.016V78.954C79.9694 78.9913 79.9881 79.01 80.0254 79.01H82.3214C82.3587 79.01 82.3774 78.9913 82.3774 78.954V78.016C82.3774 77.6147 82.2654 77.2927 82.0414 77.05C81.8174 76.798 81.5234 76.672 81.1594 76.672ZM87.2246 75.846C87.4579 75.846 87.6586 75.8973 87.8266 76C87.8919 76.0373 87.9152 76.098 87.8966 76.182L87.7286 76.91C87.7192 76.994 87.6632 77.022 87.5606 76.994C87.4486 76.938 87.3086 76.91 87.1406 76.91C87.0659 76.91 87.0099 76.9147 86.9726 76.924C86.6366 76.9427 86.3612 77.12 86.1466 77.456C85.9319 77.7827 85.8246 78.184 85.8246 78.66V82.86C85.8246 82.9533 85.7779 83 85.6846 83H84.9706C84.8772 83 84.8306 82.9533 84.8306 82.86V76.056C84.8306 75.9627 84.8772 75.916 84.9706 75.916H85.6846C85.7779 75.916 85.8246 75.9627 85.8246 76.056V76.896C85.8246 76.924 85.8292 76.938 85.8386 76.938C85.8572 76.938 85.8759 76.9287 85.8946 76.91C86.1652 76.2007 86.6086 75.846 87.2246 75.846Z" fill="white"/>
</svg>