<svg width="107" height="65" viewBox="0 0 107 65" fill="none" xmlns="http://www.w3.org/2000/svg">
<path d="M19.6203 64L2 33H13.5443L19.6203 43.0294H26L19.6203 33H31.7722L50 64H37.5443L31.7722 53.9706H26L31.7722 64H19.6203Z" fill="#D9D9D9" stroke="#D9D9D9"/>
<path d="M40.2297 35.046L58.6137 4.74284L64.2383 14.7473L58.4733 24.8765L61.5816 30.4052L67.1985 20.0128L73.1191 30.5438L55.0311 61.3735L48.9625 50.5792L54.8755 40.7133L52.0632 35.7111L46.1503 45.577L40.2297 35.046Z" fill="#D9D9D9" stroke="#D9D9D9"/>
<path d="M16.8737 0.906378L52.4072 2.12228L46.3752 11.8885L34.683 11.8126L31.3495 17.2098L43.2005 17.0287L36.851 27.3089L0.999993 26.607L7.50822 16.0698L19.0417 16.4027L22.0577 11.5195L10.5242 11.1866L16.8737 0.906378Z" fill="#D9D9D9" stroke="#D9D9D9"/>
<path d="M80.606 9.34C80.606 9.24667 80.6527 9.2 80.746 9.2H81.46C81.5533 9.2 81.6 9.24667 81.6 9.34V18.86C81.6 18.9533 81.5533 19 81.46 19H80.746C80.6527 19 80.606 18.9533 80.606 18.86V14.59C80.606 14.5527 80.5873 14.534 80.55 14.534H78.058C78.0207 14.534 78.002 14.5527 78.002 14.59V18.86C78.002 18.9533 77.9553 19 77.862 19H77.148C77.0547 19 77.008 18.9533 77.008 18.86V9.34C77.008 9.24667 77.0547 9.2 77.148 9.2H77.862C77.9553 9.2 78.002 9.24667 78.002 9.34V13.596C78.002 13.6333 78.0207 13.652 78.058 13.652H80.55C80.5873 13.652 80.606 13.6333 80.606 13.596V9.34ZM85.5295 11.804C86.1828 11.804 86.7055 12.0187 87.0975 12.448C87.4895 12.868 87.6855 13.4327 87.6855 14.142V18.86C87.6855 18.9533 87.6388 19 87.5455 19H86.8315C86.7382 19 86.6915 18.9533 86.6915 18.86V18.44C86.6915 18.4213 86.6822 18.412 86.6635 18.412C86.6542 18.4027 86.6402 18.4073 86.6215 18.426C86.2762 18.8833 85.7582 19.112 85.0675 19.112C84.5542 19.112 84.1062 18.9673 83.7235 18.678C83.3502 18.3793 83.1635 17.8567 83.1635 17.11C83.1635 16.3167 83.3922 15.738 83.8495 15.374C84.3068 15.0007 84.9088 14.814 85.6555 14.814H86.6355C86.6728 14.814 86.6915 14.7953 86.6915 14.758V14.212C86.6915 13.7453 86.5842 13.372 86.3695 13.092C86.1548 12.812 85.8655 12.672 85.5015 12.672C85.2215 12.672 84.9788 12.7653 84.7735 12.952C84.5775 13.1387 84.4608 13.3767 84.4235 13.666C84.4235 13.7593 84.3768 13.806 84.2835 13.806L83.4995 13.792C83.4528 13.792 83.4155 13.778 83.3875 13.75C83.3688 13.722 83.3642 13.6893 83.3735 13.652C83.4202 13.1013 83.6442 12.658 84.0455 12.322C84.4468 11.9767 84.9415 11.804 85.5295 11.804ZM85.2775 18.244C85.6602 18.244 85.9915 18.1227 86.2715 17.88C86.5515 17.628 86.6915 17.2827 86.6915 16.844V15.668C86.6915 15.6307 86.6728 15.612 86.6355 15.612H85.6415C85.1935 15.612 84.8388 15.7333 84.5775 15.976C84.3162 16.2093 84.1855 16.5593 84.1855 17.026C84.1855 17.4367 84.2835 17.7447 84.4795 17.95C84.6848 18.146 84.9508 18.244 85.2775 18.244ZM91.7327 11.804C92.3207 11.804 92.7921 12.0047 93.1467 12.406C93.5014 12.798 93.6787 13.3113 93.6787 13.946V16.97C93.6787 17.6233 93.5014 18.146 93.1467 18.538C92.7921 18.9207 92.3207 19.112 91.7327 19.112C91.4714 19.112 91.2241 19.0653 90.9907 18.972C90.7574 18.8693 90.5521 18.7153 90.3747 18.51C90.3561 18.4913 90.3374 18.4867 90.3187 18.496C90.3094 18.5053 90.3047 18.5193 90.3047 18.538V21.576C90.3047 21.6693 90.2581 21.716 90.1647 21.716H89.4507C89.3574 21.716 89.3107 21.6693 89.3107 21.576V12.056C89.3107 11.9627 89.3574 11.916 89.4507 11.916H90.1647C90.2581 11.916 90.3047 11.9627 90.3047 12.056V12.378C90.3047 12.3967 90.3141 12.4107 90.3327 12.42C90.3514 12.42 90.3701 12.4107 90.3887 12.392C90.5567 12.196 90.7574 12.0513 90.9907 11.958C91.2334 11.8553 91.4807 11.804 91.7327 11.804ZM92.6987 14.016C92.6987 13.6147 92.5821 13.2927 92.3487 13.05C92.1247 12.798 91.8354 12.672 91.4807 12.672C91.1354 12.672 90.8507 12.798 90.6267 13.05C90.4121 13.2927 90.3047 13.6147 90.3047 14.016V16.9C90.3047 17.3013 90.4121 17.628 90.6267 17.88C90.8507 18.1227 91.1354 18.244 91.4807 18.244C91.8354 18.244 92.1247 18.1227 92.3487 17.88C92.5821 17.628 92.6987 17.3013 92.6987 16.9V14.016ZM97.721 11.804C98.309 11.804 98.7803 12.0047 99.135 12.406C99.4897 12.798 99.667 13.3113 99.667 13.946V16.97C99.667 17.6233 99.4897 18.146 99.135 18.538C98.7803 18.9207 98.309 19.112 97.721 19.112C97.4597 19.112 97.2123 19.0653 96.979 18.972C96.7457 18.8693 96.5403 18.7153 96.363 18.51C96.3443 18.4913 96.3257 18.4867 96.307 18.496C96.2977 18.5053 96.293 18.5193 96.293 18.538V21.576C96.293 21.6693 96.2463 21.716 96.153 21.716H95.439C95.3457 21.716 95.299 21.6693 95.299 21.576V12.056C95.299 11.9627 95.3457 11.916 95.439 11.916H96.153C96.2463 11.916 96.293 11.9627 96.293 12.056V12.378C96.293 12.3967 96.3023 12.4107 96.321 12.42C96.3397 12.42 96.3583 12.4107 96.377 12.392C96.545 12.196 96.7457 12.0513 96.979 11.958C97.2217 11.8553 97.469 11.804 97.721 11.804ZM98.687 14.016C98.687 13.6147 98.5703 13.2927 98.337 13.05C98.113 12.798 97.8237 12.672 97.469 12.672C97.1237 12.672 96.839 12.798 96.615 13.05C96.4003 13.2927 96.293 13.6147 96.293 14.016V16.9C96.293 17.3013 96.4003 17.628 96.615 17.88C96.839 18.1227 97.1237 18.244 97.469 18.244C97.8237 18.244 98.113 18.1227 98.337 17.88C98.5703 17.628 98.687 17.3013 98.687 16.9V14.016ZM100.938 21.8C100.92 21.8 100.901 21.786 100.882 21.758C100.864 21.73 100.854 21.6973 100.854 21.66V21.1C100.854 21.0067 100.901 20.96 100.994 20.96C101.284 20.9507 101.508 20.8947 101.666 20.792C101.834 20.6893 101.97 20.5073 102.072 20.246C102.175 19.9847 102.278 19.5833 102.38 19.042C102.39 19.0233 102.39 19.0093 102.38 19C102.38 18.9813 102.38 18.9673 102.38 18.958L100.602 12.07L100.588 12.028C100.588 11.9533 100.635 11.916 100.728 11.916H101.484C101.578 11.916 101.629 11.958 101.638 12.042L102.87 17.544C102.88 17.572 102.889 17.586 102.898 17.586C102.908 17.586 102.917 17.572 102.926 17.544L104.144 12.042C104.163 11.958 104.214 11.916 104.298 11.916L105.082 11.93C105.129 11.93 105.162 11.944 105.18 11.972C105.208 12 105.213 12.0373 105.194 12.084L103.248 19.616C103.08 20.2413 102.912 20.7033 102.744 21.002C102.586 21.3007 102.376 21.506 102.114 21.618C101.853 21.7393 101.484 21.8 101.008 21.8H100.938ZM80.606 26.34C80.606 26.2467 80.6527 26.2 80.746 26.2H81.46C81.5533 26.2 81.6 26.2467 81.6 26.34V35.86C81.6 35.9533 81.5533 36 81.46 36H80.746C80.6527 36 80.606 35.9533 80.606 35.86V31.59C80.606 31.5527 80.5873 31.534 80.55 31.534H78.058C78.0207 31.534 78.002 31.5527 78.002 31.59V35.86C78.002 35.9533 77.9553 36 77.862 36H77.148C77.0547 36 77.008 35.9533 77.008 35.86V26.34C77.008 26.2467 77.0547 26.2 77.148 26.2H77.862C77.9553 26.2 78.002 26.2467 78.002 26.34V30.596C78.002 30.6333 78.0207 30.652 78.058 30.652H80.55C80.5873 30.652 80.606 30.6333 80.606 30.596V26.34ZM85.5015 36.112C84.8295 36.112 84.2928 35.916 83.8915 35.524C83.4995 35.132 83.3035 34.614 83.3035 33.97V30.96C83.3035 30.3253 83.5042 29.8073 83.9055 29.406C84.3068 29.0047 84.8388 28.804 85.5015 28.804C86.1735 28.804 86.7102 29.0047 87.1115 29.406C87.5128 29.8073 87.7135 30.3253 87.7135 30.96V33.97C87.7135 34.614 87.5128 35.132 87.1115 35.524C86.7102 35.916 86.1735 36.112 85.5015 36.112ZM85.5015 35.23C85.8562 35.23 86.1455 35.1087 86.3695 34.866C86.6028 34.6233 86.7195 34.3013 86.7195 33.9V31.016C86.7195 30.6147 86.6028 30.2927 86.3695 30.05C86.1455 29.798 85.8562 29.672 85.5015 29.672C85.1468 29.672 84.8575 29.798 84.6335 30.05C84.4095 30.2927 84.2975 30.6147 84.2975 31.016V33.9C84.2975 34.3013 84.4095 34.6233 84.6335 34.866C84.8575 35.1087 85.1468 35.23 85.5015 35.23ZM92.5021 29.056C92.5021 28.9627 92.5487 28.916 92.6421 28.916H93.3561C93.4494 28.916 93.4961 28.9627 93.4961 29.056V35.86C93.4961 35.9533 93.4494 36 93.3561 36H92.6421C92.5487 36 92.5021 35.9533 92.5021 35.86V35.384C92.5021 35.356 92.4927 35.342 92.4741 35.342C92.4647 35.342 92.4507 35.3513 92.4321 35.37C92.1427 35.8553 91.6761 36.098 91.0321 36.098C90.4721 36.098 90.0241 35.93 89.6881 35.594C89.3614 35.2487 89.1981 34.7307 89.1981 34.04V29.056C89.1981 28.9627 89.2447 28.916 89.3381 28.916H90.0521C90.1454 28.916 90.1921 28.9627 90.1921 29.056V33.816C90.1921 34.2827 90.2854 34.6373 90.4721 34.88C90.6681 35.1133 90.9481 35.23 91.3121 35.23C91.6854 35.23 91.9747 35.0947 92.1801 34.824C92.3947 34.5533 92.5021 34.1847 92.5021 33.718V29.056ZM97.5957 28.846C97.829 28.846 98.0297 28.8973 98.1977 29C98.263 29.0373 98.2863 29.098 98.2677 29.182L98.0997 29.91C98.0903 29.994 98.0343 30.022 97.9317 29.994C97.8197 29.938 97.6797 29.91 97.5117 29.91C97.437 29.91 97.381 29.9147 97.3437 29.924C97.0077 29.9427 96.7323 30.12 96.5177 30.456C96.303 30.7827 96.1957 31.184 96.1957 31.66V35.86C96.1957 35.9533 96.149 36 96.0557 36H95.3417C95.2483 36 95.2017 35.9533 95.2017 35.86V29.056C95.2017 28.9627 95.2483 28.916 95.3417 28.916H96.0557C96.149 28.916 96.1957 28.9627 96.1957 29.056V29.896C96.1957 29.924 96.2003 29.938 96.2097 29.938C96.2283 29.938 96.247 29.9287 96.2657 29.91C96.5363 29.2007 96.9797 28.846 97.5957 28.846ZM80.606 43.34C80.606 43.2467 80.6527 43.2 80.746 43.2H81.46C81.5533 43.2 81.6 43.2467 81.6 43.34V52.86C81.6 52.9533 81.5533 53 81.46 53H80.746C80.6527 53 80.606 52.9533 80.606 52.86V48.59C80.606 48.5527 80.5873 48.534 80.55 48.534H78.058C78.0207 48.534 78.002 48.5527 78.002 48.59V52.86C78.002 52.9533 77.9553 53 77.862 53H77.148C77.0547 53 77.008 52.9533 77.008 52.86V43.34C77.008 43.2467 77.0547 43.2 77.148 43.2H77.862C77.9553 43.2 78.002 43.2467 78.002 43.34V47.596C78.002 47.6333 78.0207 47.652 78.058 47.652H80.55C80.5873 47.652 80.606 47.6333 80.606 47.596V43.34ZM87.6855 49.696C87.6855 49.7893 87.6388 49.836 87.5455 49.836H84.3535C84.3162 49.836 84.2975 49.8547 84.2975 49.892V50.914C84.2975 51.306 84.4048 51.628 84.6195 51.88C84.8435 52.1227 85.1328 52.244 85.4875 52.244C85.7862 52.244 86.0382 52.1553 86.2435 51.978C86.4582 51.7913 86.5982 51.5533 86.6635 51.264C86.6915 51.18 86.7428 51.138 86.8175 51.138L87.5175 51.166C87.5548 51.166 87.5875 51.18 87.6155 51.208C87.6435 51.236 87.6528 51.2733 87.6435 51.32C87.5688 51.8707 87.3402 52.3093 86.9575 52.636C86.5842 52.9533 86.0942 53.112 85.4875 53.112C84.8248 53.112 84.2928 52.916 83.8915 52.524C83.4995 52.132 83.3035 51.614 83.3035 50.97V47.946C83.3035 47.3113 83.4995 46.798 83.8915 46.406C84.2928 46.0047 84.8248 45.804 85.4875 45.804C86.1595 45.804 86.6915 46.0047 87.0835 46.406C87.4848 46.798 87.6855 47.3113 87.6855 47.946V49.696ZM85.4875 46.672C85.1328 46.672 84.8435 46.798 84.6195 47.05C84.4048 47.2927 84.2975 47.6147 84.2975 48.016V48.954C84.2975 48.9913 84.3162 49.01 84.3535 49.01H86.6495C86.6868 49.01 86.7055 48.9913 86.7055 48.954V48.016C86.7055 47.6147 86.5935 47.2927 86.3695 47.05C86.1455 46.798 85.8515 46.672 85.4875 46.672ZM89.2147 53C89.1214 53 89.0747 52.9533 89.0747 52.86V43.34C89.0747 43.2467 89.1214 43.2 89.2147 43.2H89.9287C90.022 43.2 90.0687 43.2467 90.0687 43.34V52.86C90.0687 52.9533 90.022 53 89.9287 53H89.2147ZM94.18 45.804C94.768 45.804 95.2393 46.0047 95.594 46.406C95.9487 46.798 96.126 47.3113 96.126 47.946V50.97C96.126 51.6233 95.9487 52.146 95.594 52.538C95.2393 52.9207 94.768 53.112 94.18 53.112C93.9187 53.112 93.6713 53.0653 93.438 52.972C93.2047 52.8693 92.9993 52.7153 92.822 52.51C92.8033 52.4913 92.7847 52.4867 92.766 52.496C92.7567 52.5053 92.752 52.5193 92.752 52.538V55.576C92.752 55.6693 92.7053 55.716 92.612 55.716H91.898C91.8047 55.716 91.758 55.6693 91.758 55.576V46.056C91.758 45.9627 91.8047 45.916 91.898 45.916H92.612C92.7053 45.916 92.752 45.9627 92.752 46.056V46.378C92.752 46.3967 92.7613 46.4107 92.78 46.42C92.7987 46.42 92.8173 46.4107 92.836 46.392C93.004 46.196 93.2047 46.0513 93.438 45.958C93.6807 45.8553 93.928 45.804 94.18 45.804ZM95.146 48.016C95.146 47.6147 95.0293 47.2927 94.796 47.05C94.572 46.798 94.2827 46.672 93.928 46.672C93.5827 46.672 93.298 46.798 93.074 47.05C92.8593 47.2927 92.752 47.6147 92.752 48.016V50.9C92.752 51.3013 92.8593 51.628 93.074 51.88C93.298 52.1227 93.5827 52.244 93.928 52.244C94.2827 52.244 94.572 52.1227 94.796 51.88C95.0293 51.628 95.146 51.3013 95.146 50.9V48.016ZM101.904 49.696C101.904 49.7893 101.858 49.836 101.764 49.836H98.5723C98.5349 49.836 98.5163 49.8547 98.5163 49.892V50.914C98.5163 51.306 98.6236 51.628 98.8383 51.88C99.0623 52.1227 99.3516 52.244 99.7063 52.244C100.005 52.244 100.257 52.1553 100.462 51.978C100.677 51.7913 100.817 51.5533 100.882 51.264C100.91 51.18 100.962 51.138 101.036 51.138L101.736 51.166C101.774 51.166 101.806 51.18 101.834 51.208C101.862 51.236 101.872 51.2733 101.862 51.32C101.788 51.8707 101.559 52.3093 101.176 52.636C100.803 52.9533 100.313 53.112 99.7063 53.112C99.0436 53.112 98.5116 52.916 98.1103 52.524C97.7183 52.132 97.5223 51.614 97.5223 50.97V47.946C97.5223 47.3113 97.7183 46.798 98.1103 46.406C98.5116 46.0047 99.0436 45.804 99.7063 45.804C100.378 45.804 100.91 46.0047 101.302 46.406C101.704 46.798 101.904 47.3113 101.904 47.946V49.696ZM99.7063 46.672C99.3516 46.672 99.0623 46.798 98.8383 47.05C98.6236 47.2927 98.5163 47.6147 98.5163 48.016V48.954C98.5163 48.9913 98.5349 49.01 98.5723 49.01H100.868C100.906 49.01 100.924 48.9913 100.924 48.954V48.016C100.924 47.6147 100.812 47.2927 100.588 47.05C100.364 46.798 100.07 46.672 99.7063 46.672ZM105.771 45.846C106.005 45.846 106.205 45.8973 106.373 46C106.439 46.0373 106.462 46.098 106.443 46.182L106.275 46.91C106.266 46.994 106.21 47.022 106.107 46.994C105.995 46.938 105.855 46.91 105.687 46.91C105.613 46.91 105.557 46.9147 105.519 46.924C105.183 46.9427 104.908 47.12 104.693 47.456C104.479 47.7827 104.371 48.184 104.371 48.66V52.86C104.371 52.9533 104.325 53 104.231 53H103.517C103.424 53 103.377 52.9533 103.377 52.86V46.056C103.377 45.9627 103.424 45.916 103.517 45.916H104.231C104.325 45.916 104.371 45.9627 104.371 46.056V46.896C104.371 46.924 104.376 46.938 104.385 46.938C104.404 46.938 104.423 46.9287 104.441 46.91C104.712 46.2007 105.155 45.846 105.771 45.846Z" fill="white"/>
</svg>